<svg xmlns="http://www.w3.org/2000/svg" version="1.0" width="1920.000000pt" height="1920.000000pt" viewBox="0 0 1920.000000 1920.000000" preserveAspectRatio="xMidYMid meet" style="     width: 200px;     background-color: transparent;     height: auto; ">

<g transform="translate(0.000000,1920.000000) scale(0.100000,-0.100000)" fill="#000000" stroke="none">
<path d="M3195 12276 c-37 -17 -80 -62 -94 -99 -8 -20 -11 -801 -11 -2578 0 -2143 2 -2555 14 -2582 16 -39 61 -82 99 -96 36 -14 251 -14 296 -1 46 13 99 65 111 110 14 48 14 5092 0 5139 -13 46 -65 99 -110 111 -53 15 -269 12 -305 -4z"/>
<path d="M3845 11768 c-3 -7 -4 -987 -3 -2178 l3 -2165 3145 0 3145 0 0 2175 0 2175 -3143 3 c-2509 2 -3144 0 -3147 -10z"/>
<path d="M10400 9599 l0 -2181 203 6 c1867 61 3392 339 4349 794 755 358 1151 838 1152 1397 0 188 -36 339 -122 510 -423 843 -1954 1398 -4412 1599 -295 25 -924 56 -1122 56 l-48 0 0 -2181z"/>
</g>
</svg>